<?xml version="1.0" encoding="UTF-8" standalone="no"?>
<!-- Created with Inkscape (http://www.inkscape.org/) -->
<svg xmlns:dc="http://purl.org/dc/elements/1.1/" xmlns:cc="http://creativecommons.org/ns#" xmlns:rdf="http://www.w3.org/1999/02/22-rdf-syntax-ns#" xmlns:svg="http://www.w3.org/2000/svg" xmlns="http://www.w3.org/2000/svg" xmlns:sodipodi="http://sodipodi.sourceforge.net/DTD/sodipodi-0.dtd" xmlns:inkscape="http://www.inkscape.org/namespaces/inkscape" version="1.1" width="220" height="300" viewBox="0 0 220 300" id="Layer_1" xml:space="preserve" inkscape:version="0.47pre1" sodipodi:docname="Beijing_2008_Olympics_logo.svg" inkscape:output_extension="org.inkscape.output.svg.inkscape"><metadata id="metadata39"><rdf:RDF><cc:Work rdf:about=""><dc:format>image/svg+xml</dc:format><dc:type rdf:resource="http://purl.org/dc/dcmitype/StillImage"/></cc:Work></rdf:RDF></metadata><sodipodi:namedview pagecolor="#ffffff" bordercolor="#666666" borderopacity="1" objecttolerance="10" gridtolerance="10" guidetolerance="10" inkscape:pageopacity="0" inkscape:pageshadow="2" inkscape:window-width="1024" inkscape:window-height="712" id="namedview37" showgrid="false" inkscape:zoom="2.2438855" inkscape:cx="142.44955" inkscape:cy="101.17968" inkscape:window-x="-4" inkscape:window-y="-4" inkscape:window-maximized="1" inkscape:current-layer="Layer_1"/><defs id="defs3375"><inkscape:perspective sodipodi:type="inkscape:persp3d" inkscape:vp_x="0 : 150 : 1" inkscape:vp_y="0 : 1000 : 0" inkscape:vp_z="220 : 150 : 1" inkscape:persp3d-origin="110 : 100 : 1" id="perspective41"/></defs>
<path d="m 147.29582,23.612 c -0.067,-1.943 -2.76,-1.886 -2.946,-3.637 -1.375,-1.195 -2.006,-2.193 -3.644,-3.388 -1.32,1.004 -0.62,-1.39 -2.005,-1.134 -2.26,-1.749 -5.395,-1.32 -7.653,-2.694 l 0.18,-0.189 c -0.745,-0.685 -0.935,-1.125 -1.813,-1.63 -1.13,0.31 -2.135,-0.438 -2.895,-0.438 -0.231,-0.38 -0.748,-0.131 -1.122,-0.186 -1.563,-1.95 -4.272,-1.016 -5.902,-2.524 -0.554,0.45 -0.872,0.379 -1.378,-0.241 -2.819,-1.191 -6.215,-2.137 -9.472,-2.697 -0.691,0.504 -1.438,-0.064 -2.005,-0.444 -2.144,-0.876 -3.707,0.879 -5.656,-0.436 -0.559,0.119 -0.304,0.685 -0.933,0.685 -0.136997,-0.25 -0.564997,-0.38 -0.434997,-0.685 l -1.831,-0.254 c -1.757,1.568 -3.445,-1.059 -5.146,0.443 -0.559,0.69 -2.061,0 -2.752,0.246 -0.319,-0.131 -0.45,0.319 -0.641,0.444 -2.81,0.435 -5.639,0.815 -7.898,2.509 -1.252,0.498 -1.639,2.703 -3.393,2.256 -0.619,0.75 -0.935,1.69 -1.813,2.265 1.07,1.755 -1.508,1.627 -0.934,3.132 l -0.188,0.249 c -0.441,0.186 -0.702,0.696 -1.14,0.186 -0.685,0.125 -1.071,0.636 -0.94,1.39 -0.629,0.307 -1.189,0.866 -2.009,0.684 -1.062,0.569 -1.193,2.074 -2.001,2.698 0.058,1.195 -1.134,1.824 -0.696,3.147 -1.438,1.369 -0.879,3.631 -2.263,5.012 l 0.195,0.189 c 0.815,0.684 -0.438,1.25 -0.63,1.575 -0.565,2.377 -1.189,4.762 -1.632,7.273 0.319,0.815 -0.496,2.068 -0.186,2.889 -1.502,2.248 0.137,5.021 -1.372,7.269 -0.186,0.565 0.617,0.884 0,1.319 l 0.243,0.25 -0.429,0.446 c 0.429,2.004 -0.578,3.898 -0.255,6.088 -0.198,0.319 -0.697,0.693 -0.256,0.937 -0.945,1.511 0.058,2.956 -0.873,4.519 0.368,5.151 -1.643,10.482 -0.882,15.563 -1.632,1.502 -0.823,4.33 -0.693,6.34 0.125,0.878 1.065,1.626 2.007,1.316 2.509,-0.119 4.267,-2.262 6.34,-3.396 0.871,-0.559 1.95,-1.63 3.133,-0.869 0.374,-0.319 0.751,-0.694 0.94,-1.135 0.759,-0.07 1.319,-1.003 2.01,-0.685 0.873,0.435 1.633,-0.443 2.512,-0.693 1.879,-0.441 4.266,0 6.34,-0.635 0.559,0.885 2.266,0.568 2.01,2.013 1.247,-0.25 1.128,1.445 2.502,0.878 3.831,3.774 5.021,9.604 4.017,14.94 -0.13,1.119 0.432,3.132 -0.434,4.26 l 0.249,4.334 c 0.125,0.748 0.618,1.624 0.429,2.253 -0.054,0.438 0.07,0.817 0.451,1.134 0.56,1.943 1.445,3.327 2.697,4.951 1.439,-0.374 2.758,0.891 3.884,-0.249 0.38,0.13 1.073,0.568 0.879,1.14 0.748,-1.009 2.137997,-1.955 2.702997,-3.15 1.813,-1.998 1.253,-5.705 1.377,-8.338 1.077,-3.328 -1.192,-7.214 0.186,-10.422 -0.368,-1.189 -1.064,-2.508 -1.127,-3.573 l -2.687997,-3.196 c -0.195,-2.009 -2.335,-3.199 -2.014,-5.4 -0.511,-1.25 -0.885,-2.813 -0.69,-4.084 -0.815,-0.939 -0.386,-2.758 -0.255,-3.631 0.82,-0.998 -0.56,-1.7 -0.435,-2.698 0.565,-2.259 -0.194,-4.768 0.69,-7.216 -0.195,-1.502 0.31,-3.513 -1.135,-4.272 -2.509,-0.444 -4.391,-0.189 -7.025,-0.244 -1.568,1.755 -3.451,-0.504 -5.145,0.244 -2.889,-1.372 -6.465,-0.368 -9.539,0 l -0.188,-0.244 c -0.87,-1.569 -3.014,-1.824 -4.513,-2.703 0.24,-2.64 -1.441,-4.398 -1.134,-7.031 -1.32,-0.684 -0.307,-2.381 -0.939,-3.381 l 0.501,-0.445 c 2.007,-0.31 2.256,-2.633 3.826,-3.822 2.384,-1.134 3.588,-3.518 6.335,-3.832 0.696,0.255 1.753,-0.125 2.259,0.873 l -1.625,2.01 0.25,0.255 c -0.119,0.127 -0.25,0.319 -0.444,0.25 0.326,0.7 -0.685,1.192 0,1.763 -0.624,0.561 0.124,1.123 0.194,1.625 2.075,1.323 4.142,1.134 6.337,1.323 2.068,1.313 5.085,0.31 7.463,0.939 0.761,-0.194 1.064,-1.384 2.013,-0.939 1.694,1.183 3.884,-0.381 5.456,0.435 0.684997,0.188 1.195997,-0.256 1.824997,-0.435 3.205,0.504 6.2,-0.94 9.665,-0.445 3.45,-0.185 6.452,-1.444 9.965,-1.569 3.714,-1 7.785,-1.38 10.856,-4.077 0.386,-0.313 1.137,-0.313 1.575,0 1.88,-0.119 2.067,-2.883 4.077,-2.698 2.264,0.375 2.822,-2.573 4.708,-2.703 1.134,-1.688 3.451,-2.123 4.515,-3.88 0.752,-1.131 0.503,-2.955 0.248,-4.272 m -30.055,7.463 c 0.371,1.195 -1.446,2.198 -2.262,2.958 -3.512,1.064 -7.965,0.25 -10.856,-2.269 -0.185,-2.816 -3.58,-4.635 -1.999,-7.903 -0.952,-0.946 2.062,-2.01 -0.255,-2.515 0.499,-0.742 0.499,-1.746 0,-2.497 l -0.186,-0.195 c 0.441,-0.873 2.64,-0.125 1.749,-1.569 0.441,-0.311 0.506,-0.684 0.506,-1.123 l -0.256,-0.255 c 1.77,-0.751 3.899,-0.377 5.656,-1.125 2.011,0.31 4.196,0.87 5.393,2.503 1.443,0.44 1.319,2.132 2.511,2.703 1.5,1.88 0.753,4.765 1.57,6.964 -0.315,1.57 -0.071,3.325 -1.571,4.323" id="path3308" style="fill:#d71921"/>
<path d="m 157.21082,44.637 c 0.503,2.38 1.755,4.455 1.825,6.958 0.814,0.565 0.685,1.895 0.685,2.515 -0.311,0.693 0.499,1.447 0.686,2.262 -0.251,1.879 0.878,3.947 -0.494,5.392 -2.198,2.131 1.448,4.081 -0.439,6.34 -0.187,1.439 1.812,1.314 1.121,2.941 0.386,0.629 1.077,0.572 1.124,1.396 0,0.739 0.077,2.188 -0.174,3.126 0.624,0.379 -0.31,0.689 -0.26,1.131 1.376,1.441 0,3.135 1.134,4.765 0.181,1.259 -0.368,2.822 0.447,3.825 l -0.205,0.198 c -0.437,3.95 1.645,7.149 0.89,10.85 0.692,2.697 0.492,5.146 0.879,7.715 l -0.435,6.535 c 0.683,2.445 0.748,5.142 0.683,7.903 -0.372,0.311 -0.498,0.685 -0.435,1.125 0.686,1.196 -0.248,2.822 -0.248,4.267 1.188,1.384 -0.388,3.014 0.435,4.516 -0.063,0.504 -0.822,0.951 -0.187,1.383 -0.563,1.818 0.187,4.203 -0.692,5.89 0.492,2.26 -0.951,4.528 -0.442,6.788 -0.19,0.255 -0.689,0.623 -0.242,0.873 -0.205,1.569 -0.512,3.138 -1.147,4.522 0,0.873 -0.174,2.134 -0.434,3.131 -0.305,1.391 -0.369,1.949 -0.878,3.202 -0.251,-0.063 -0.376,0.131 -0.494,0.186 l 0.243,0.25 c -1.063,0.318 -0.745,2.274 -2.252,2.02 -0.624,0.62 -1.825,-0.326 -2.261,0.934 -0.884,0 -1.441,-1.569 -2.519,-0.679 0.065,-0.767 -0.933,-0.387 -0.872,-1.141 -0.88,0 -1.693,0.56 -2.003,1.381 -0.195,1.448 -0.435,3.141 -1.635,4.019 0.438,0.187 0.184,0.622 0.251,0.942 -0.192,0.379 -0.815,0.185 -0.686,0.688 l 0.256,0.18 c -0.325,0.636 -1.456,0.949 -2.079,0.444 l -0.189,-0.188 c -1.256,1.198 -2.889,2.572 -4.326,3.582 -1.196,0 -2.51,1.378 -3.579,1.819 -2.192,-0.07 -4.705,0.18 -6.591,-0.192 -1.188,-0.694 -3.015,-0.375 -3.576,-2.061 -0.498,-1.765 -2.764,-3.339 -1.575,-5.215 l 1.136,-1.321 c -0.694,-1.505 1.13,-2.508 1.306,-3.828 2.337,-0.374 0.951,-3.451 3.209,-3.886 l -0.244,-0.195 c 1.5,-2.752 5.207,-4.011 5.648,-7.21 3.326,-1.569 4.081,-5.585 7.023,-7.724 -0.062,-0.31 0.381,-0.498 0.189,-0.873 -0.189,-1.32 1.569,-2.384 1.569,-3.829 l -0.189,-0.255 c 2.269,-1.493 1.129,-4.516 2.698,-6.334 -1.569,-2.441 2.255,-4.646 -0.686,-6.525 1.509,-1.883 -1.823,-2.317 -0.694,-4.33 -1.26,-0.94 -1.2,-2.819 -1.758,-4.258 -0.749,-1.703 -2.268,-3.458 -2.753,-5.401 -0.201,-0.69 -1.01,-0.25 -1.319,-0.69 l 0.186,-0.255 c -1.321,-2.067 -2.947,-4.385 -5.146,-6.334 -1.944,-2.262 -4.839,-4.203 -7.281,-6.271 l -0.185,0.186 c -3.015,-3.072 -8.469,-2.703 -10.169,-6.532 0.121,-2.25 1.319,-3.707 2.694,-5.199 1.197,0.125 0.948,-1.695 2.269,-1.384 1.812,-0.565 0.81,-2.816 2.265,-3.826 -0.137,-1.25 -0.392,-2.438 0.673,-3.388 l 0,-17.134 c -0.311,-0.754 0.694,-1.569 1.134,-2.259 1.817,-0.69 3.95,-0.69 5.4,-2.248 2.068,-0.45 3.762,-1.633 5.891,-1.825 1.634,-1.258 3.513,-1.703 5.212,-2.953 l 0.189,0.255 c 0.872,-1.7 3.013,-1.328 4.333,-2.518 1.813,-0.31 3.631,-1.38 5.639,-0.69 l 2.451,2.516 z" id="path3310" style="fill:#d71921"/>
<path d="m 116.11882,59.504 c 0.441,4.896 0.237,9.223 -0.706,13.8 -1.444,-0.125 -0.993,2.263 -2.688,2.006 l -0.438,0.697 c -0.757,-0.56 -1.628,-0.697 -2.259,-1.576 -1.128,-3.506 -0.69,-7.453 -0.69,-11.036 0.257,-0.316 0.257,-0.69 0.69,-0.934 -0.69,-1.328 -0.69,-2.703 0,-4.093 0.685,-0.243 1.818,-0.243 2.259,-0.879 1.439,0.258 3.44,0.258 3.832,2.015" id="path3312" style="fill:#d71921"/>
<path d="m 78.146823,93.39 c -0.629,0.563 0.195,1.128 0.25,1.633 l 0.194,0 c 0,2.438 -0.878,4.887 -0.634,7.216 -0.743,1.307 -0.369,3.007 -1.117,4.26 0.304,0.566 0.553,1.135 1.117,1.569 -1.184,1.445 0.385,3.084 -0.244,4.528 0.685,2.132 2.317,3.376 3.637,5.008 0.125,2.136 2.752,2.573 2.882,4.714 0.518,1.128 1.694,0.748 2.516,1.128 1.953,1.818 5.27,1.006 7.028,2.953 2.819,-0.885 5.96,0.864 8.529997,-0.7 0.444,0.38 0.76,0.955 1.377,0.7 l 2.014,-1.569 c 1.443,0.621 2.188,-1.572 3.898,-1.14 0.676,-3.001 4.309,-3.756 5.633,-6.34 -0.053,-0.803 0.946,-1.819 0.892,-2.953 0.618,-0.678 0.237,-1.494 1.122,-2.248 -0.313,-1.693 -0.504,-3.132 0.247,-4.701 0.38,-1.946 -1.886,-4.081 0.194,-5.465 1.129,-0.636 2.385,0.131 3.388,0.444 -0.192,0.493 0.243,0.873 0.685,0.684 l 0.692,0 c -0.052,0.256 0.124,0.38 0.192,0.435 l 0.249,0 -0.249,0.256 c 2.007,0.623 2.193,2.885 3.88,3.831 l -0.231,0.25 c 0.303,0.435 1.115,0 1.367,0.69 l -0.252,0.188 c 1.321,0.751 0.126,3.138 2.267,3.193 1.062,1.077 0.563,3.269 2.256,4.272 0.119,2.007 1.886,3.513 0.871,5.644 1.073,0.751 0,2.074 0,3.139 0.45,2.016 -1.196,3.132 -1.749,4.521 0.25,0.13 0.18,0.499 0.18,0.69 -0.56,0.192 -1.183,0.505 -1.315,1.129 0.065,1.817 -2.509,2.316 -2.509,4.32 l -0.442,0.447 c 0.511,0.195 -0.061,0.563 0,0.873 -2.819,0.94 -3.574,4.142 -5.891,5.657 0.124,0.373 -0.256,0.434 -0.435,0.684 -0.695,-0.25 -1.204,0.429 -1.39,0.873 0.124,1.7 -1.943,1.262 -2.26,2.965 -3.018,2.508 -4.765,4.756 -7.206,7.715 0.435,1.189 -0.697,1.813 -1.135,2.691 l 0.255,0.19 c -0.572,0.374 -0.696,1.136 -1.387,1.633 0.311,1.381 -0.623,3.763 0.44,4.957 0.186,0.81 0.63,1.813 0.5,2.448 l 0.191,0.25 c -0.257,0.123 -0.191,0.434 -0.191,0.683 -0.815,-0.123 -1.123,0.949 -1.623,1.136 -4.961,-0.816 -9.917997,-0.249 -14.439997,-1.385 -1.943,-0.061 -3.691,-1.188 -5.644,-0.434 -2.378,-0.57 -4.769,-1.064 -7.037,-1.825 -1.119,-1.128 -2.758,-1.378 -4.26,-2.442 l -0.241,-0.255 -0.629,0.879 c -0.319,-0.249 -0.699,-0.249 -0.949,-0.624 -0.751,0.505 -1.812,-1.508 -2.253,-0.504 l -0.892,-0.878 -0.243,0.254 -0.192,-0.254 c -1.693,0.878 -2.697,-1.376 -4.081,-1.819 -2.253,-2.068 -5.148,-5.087 -5.89,-8.345 -0.629,-0.997 1.627,-2.764 -0.44,-3.387 -0.071,-0.684 -0.885,-1.384 -0.256,-2.013 0.51,-0.629 1.006,-2.004 0.51,-2.943 -1.697,-0.949 0.372,-2.573 -0.942,-3.638 0.742,-2.703 -0.511,-5.406 0.25,-8.104 0.319,-1.125 -1.004,-1.807 -0.447,-2.758 -0.618,-0.754 0.939,-1.694 -0.244,-2.448 1.058,-1.7 -1.189,-3.188 0.244,-4.766 -1.189,-2.135 0,-4.394 1.326,-6.091 0.255,0 0.559,0.076 0.696,-0.249 0.237,0.499 0.617,0 0.873,-0.186 0.697,-0.262 0.256,-1.01 0.697,-1.384 -0.763,-1.32 -1.451,-2.123 -2.01,-3.573 0.055,-0.505 0.809,-0.94 0.186,-1.383 -1.569,-1.444 0.255,-3.449 -0.627,-5.207 0.256,-0.125 0.186,-0.435 0.186,-0.684 1.064,-0.568 0.742,-2.074 1.128,-3.138 1.188,-0.319 0.375,-2.394 1.57,-1.828 1.754,-2.502 3.192,-4.762 6.151,-5.392 0.438,-0.185 0.755,-0.559 1.122,-0.933 1.134,0.055 2.135,-1.134 3.394,0 0.685,0.185 1.633,-1.205 2.448,-0.635 0.492,0.88 2.316,1.385 2.252,2.891" id="path3314" style="fill:#d71921"/>
<path d="m 70.147234,278.489 c -0.316,0.006 -0.636,0.019 -0.952,0.019 -11.571,0 -20.956,-9.378 -20.956,-20.958 0,-11.572 9.384,-20.955 20.956,-20.955 11.57,0 20.958,9.383 20.958,20.955 0,9.359 -6.137,17.283 -14.605,19.973 0,-0.298 -0.1,-2.95 0.31,-3.787 6.353,-2.614 10.832,-8.879 10.832,-16.186 0,-9.665 -7.836,-17.492 -17.494,-17.492 -9.658,0 -17.489,7.827 -17.489,17.492 0,9.661 7.831,17.501 17.489,17.501 0.304,0 0.617,-0.013 0.921,-0.025 -0.131,1.058 -0.162,2.77 0.03,3.463" id="path3316" style="fill:#0081c3"/>
<path d="m 70.147234,278.489 c -0.316,0.006 -0.636,0.019 -0.952,0.019 -11.571,0 -20.956,-9.378 -20.956,-20.958 0,-11.572 9.384,-20.955 20.956,-20.955 11.57,0 20.958,9.383 20.958,20.955 0,9.359 -6.137,17.283 -14.605,19.973 0,-0.298 -0.1,-2.95 0.31,-3.787 6.353,-2.614 10.832,-8.879 10.832,-16.186 0,-9.665 -7.836,-17.492 -17.494,-17.492 -9.658,0 -17.489,7.827 -17.489,17.492 0,9.661 7.831,17.501 17.489,17.501 0.304,0 0.617,-0.013 0.921,-0.025 -0.131,1.058 -0.162,2.77 0.03,3.463" id="path3318" style="fill:#0085c7;fill-opacity:1"/>
<path d="m 121.01023,277.522 c 8.479,-2.678 14.617,-10.613 14.617,-19.973 0,-11.572 -9.391,-20.955 -20.955,-20.955 -10.707,0 -19.542996,8.04 -20.802996,18.402 0.718,-0.033 3.089,0.477 3.421,0.578 0.977,-8.725 8.380996,-15.518 17.381996,-15.518 9.657,0 17.491,7.827 17.491,17.492 0,7.319 -4.487,13.595 -10.87,16.204 -0.159,0.869 -0.357,1.867 -0.283,3.77" id="path3320"/>
<path d="m 115.61923,278.489 c -0.308,0.006 -0.63,0.019 -0.946,0.019 -10.57,0 -19.306996,-7.827 -20.750996,-17.994 0.626,0.013 2.426,0.351 3.673,0.867 1.749,7.819 8.724996,13.67 17.077996,13.67 0.311,0 0.626,-0.013 0.934,-0.025 -0.034,0.635 -0.17,1.621 0.012,3.463" id="path3322"/>
<path d="m 143.07423,261.381 c 1.746,7.819 8.728,13.67 17.086,13.67 9.652,0 17.483,-7.84 17.483,-17.501 0,-9.665 -7.831,-17.492 -17.483,-17.492 -9.005,0 -16.422,6.793 -17.401,15.536 -0.611,-0.243 -2.652,-0.579 -3.418,-0.597 1.256,-10.362 10.094,-18.402 20.819,-18.402 11.564,0 20.945,9.383 20.945,20.955 0,11.58 -9.381,20.958 -20.945,20.958 -10.588,0 -19.337,-7.833 -20.764,-18.013 0.659,0.031 2.44,0.38 3.678,0.886" id="path3324" style="fill:#e90024;fill-opacity:1"/>
<path d="m 112.68423,273.854 c -1.433,-10.193 -10.169,-18.029 -20.745996,-18.029 -0.31,0 -0.615,0.006 -0.922,0.018 0.071,0.785 0.095,2.63 -0.036,3.481 0.328,-0.018 0.629,-0.036 0.958,-0.036 8.340996,0 15.308996,5.841 17.066996,13.656 0.858,0.394 3.007,0.91 3.679,0.91" id="path3326" style="fill:#f4c300;fill-opacity:1"/>
<path d="m 112.73623,279.327 c -1.253,10.371 -10.096,18.417 -20.796996,18.417 -11.577,0 -20.961,-9.385 -20.961,-20.962 0,-9.362 6.146,-17.302 14.621,-19.987 0.058,0.865 -0.024,2.357 -0.28,3.783 -6.383,2.615 -10.88,8.88 -10.88,16.204 0,9.664 7.83,17.501 17.5,17.501 8.988996,0 16.399996,-6.776 17.381996,-15.521 0.879,0.287 2.642,0.548 3.415,0.565" id="path3328" style="fill:#f4c300;fill-opacity:1"/>
<path d="m 158.21523,279.327 c -1.259,10.371 -10.096,18.417 -20.804,18.417 -11.579,0 -20.96,-9.385 -20.96,-20.962 0,-9.362 6.144,-17.289 14.623,-19.979 0.113,0.965 -0.069,3.198 -0.267,3.774 -6.358,2.615 -10.893,8.897 -10.893,16.204 0,9.664 7.834,17.501 17.496,17.501 8.997,0 16.39,-6.776 17.387,-15.521 0.472,0.169 2.268,0.525 3.418,0.566" id="path3330" style="fill:#009f3d;fill-opacity:1"/>
<path d="m 136.48923,259.307 c 0.299,-0.006 0.608,-0.019 0.923,-0.019 8.349,0 15.33,5.847 17.079,13.663 0.741,0.326 2.568,0.803 3.677,0.903 -1.432,-10.193 -10.177,-18.029 -20.756,-18.029 -0.314,0 -0.63,0.006 -0.95,0.018 0.118,0.86 0.118,2.578 0,3.464" id="path3332" style="fill:#009f3d;fill-opacity:1"/>
<path d="M 81.449,187.138 C 81.878,188.696 79.995,188.639 80.309,190.083 C 79.561,190.14 79.12,191.02 78.308,191.02 C 77.673,190.771 76.11,191.585 75.608,190.326 C 75.806,189.773 74.979,189.387 75.608,188.952 C 75.289,188.508 76.109,187.888 75.806,187.139 C 76.797,185.875 78.682,186 80.121,185.376 C 81.063,185.75 81.123,186.314 81.449,187.138" id="path3334"/>
<path d="M 88.461,186.695 C 88.534,187.008 88.273,187.442 88.723,187.637 C 88.273,187.758 88.534,188.257 88.461,188.506 C 88.461,188.82 88.398,189.703 87.78,190.082 C 86.454,190.77 85.265,192.398 83.507,191.459 C 82.567,188.887 84.961,187.137 86.454,185.374 C 87.215,185.5 88.148,185.813 88.461,186.695" id="path3336"/>
<g id="g3338">
	<path d="M 72.21,187.376 C 72.21,188.695 71.396,189.704 70.835,190.771 C 69.522,190.831 68.144,191.646 66.76,191.02 C 66.063,190.457 65.066,190.39 65.191,189.202 C 66.76,188.316 67.888,186.185 69.957,186.696 C 70.647,185.813 71.651,186.695 72.21,187.376" id="path3340"/>
	<path d="M 31.751,187.817 L 31.549,187.637 C 33.754,186.433 35.752,188.887 38.081,188.077 L 38.081,187.816 C 39.9,188.444 42.603,188.314 44.422,189.646 C 44.921,189.57 45.231,190.456 45.295,191.018 C 45.605,191.893 44.796,192.649 45.109,193.284 C 44.984,193.342 44.796,193.469 44.859,193.719 L 44.671,193.469 C 43.986,193.962 42.916,193.907 42.162,193.907 C 41.276,194.655 39.775,195.101 38.774,196.166 C 37.896,195.601 37.646,197.425 36.949,196.665 C 34.942,197.675 32.749,198.358 30.427,198.678 L 29.481,198.678 L 31.75,197.295 L 31.548,197.106 C 32.12,196.86 32.938,196.73 33.124,195.968 L 32.874,195.726 C 32.82,195.844 32.689,196.042 32.434,195.968 C 33.878,195.032 35.634,194.473 36.767,193.284 C 32.689,192.649 28.292,192.649 24.08,192.339 C 23.645,193.093 23.204,191.839 22.712,192.587 C 21.517,192.274 20.015,193.213 18.694,192.587 C 15.747,192.843 12.919,192.095 9.407,192.339 C 7.896,192.095 6.464,191.584 5.135,190.77 C 4.575,191.141 4.01,190.082 3.511,190.082 C 3.572,189.771 3.131,189.57 3.317,189.2 C 3.572,189.267 4.515,189.011 4.895,189.385 C 7.458,188.257 10.6,187.758 13.233,187.375 C 16.191,187.698 18.814,187.886 21.584,187.137 C 21.827,187.325 21.952,187.699 22.268,187.637 L 22.523,187.375 L 22.712,187.637 C 23.336,186.184 25.153,188.388 26.099,187.375 C 27.973,187.248 29.551,188.506 31.311,188.077 C 31.55,188.139 31.681,187.948 31.751,187.817" id="path3342"/>
</g>
<path d="M 205.494,191.02 C 205.991,190.771 205.431,190.457 205.494,190.083 C 205.925,190.771 206.483,189.518 206.808,190.521 L 207.32,190.083 C 207.32,190.325 207.25,190.645 207.494,190.771 C 207.934,189.452 209.008,190.695 210.007,190.326 C 212.45,191.337 214.519,193.589 215.217,196.168 C 215.217,199.065 212.836,201.375 211.136,203.202 C 211.136,203.698 211.261,204.26 210.701,204.576 C 211.075,204.701 210.832,205.2 210.887,205.448 C 210.701,205.635 210.577,206.015 210.202,205.896 C 209.436,205.759 208.44,206.209 207.494,206.328 C 206.305,208.221 203.607,208.913 202.99,211.097 C 202.163,211.227 201.906,212.543 201.164,212.915 C 202.286,213.856 204.166,213.856 205.494,213.794 C 206.934,212.915 210.007,213.794 210.701,211.353 C 210.887,211.353 211.261,211.417 211.324,211.097 C 210.506,210.033 211.075,208.403 210.886,207.025 C 211.26,206.901 211.324,207.341 211.579,207.46 C 211.704,207.205 212.02,207.281 212.269,207.281 C 212.331,208.021 213.207,208.724 213.832,209.094 C 214.087,209.149 214.147,208.968 214.272,208.845 C 214.715,210.663 217.219,212.482 215.649,214.246 C 215.602,215.37 215.406,216.304 214.516,217.004 C 212.833,217.058 212.019,218.572 210.45,218.317 C 209.881,218.877 208.817,218.129 208.438,219.012 C 207.318,218.25 206.246,218.503 205.055,218.752 C 200.846,218.752 197.146,216.553 194.63,213.616 C 193.567,211.418 195.071,209.094 196.193,207.46 C 198.15,206.017 200.086,205.517 201.655,203.443 C 201.655,203.203 201.6,202.877 201.85,202.758 C 200.085,202.129 198.017,201.439 197.146,199.806 C 196.007,199.557 196.379,198.424 196.007,197.801 C 196.516,196.862 195.635,195.23 196.891,194.849 C 196.699,193.53 198.204,192.714 198.904,191.647 C 199.717,191.531 200.721,189.323 201.655,190.772 L 202.095,191.206 C 201.904,191.462 201.537,191.587 201.655,191.896 L 201.85,192.145 C 202.464,192.097 202.464,191.405 202.796,191.021 C 203.661,192.401 202.035,192.775 201.654,193.91 C 201.22,195.603 199.407,197.173 200.72,198.937 C 201.903,199.87 203.418,200.746 205.241,200.679 C 206.74,198.741 209.503,196.916 208.436,194.165 C 206.804,192.589 205.734,190.894 203.417,190.084 C 204.422,189.704 205.058,190.694 205.494,191.02" id="path3344"/>
<polygon points="200.528,191.46 201.164,190.521 200.724,191.204 200.528,191.46 " id="polygon3346"/>
<path d="M 152.406,192.144 L 153.094,194.848 C 153.848,194.532 153.848,193.844 154.674,194.599 C 154.592,196.417 156.736,198.175 155.104,199.805 C 155.412,200.932 153.724,202.068 153.284,202.946 C 151.525,205.759 148.012,207.459 145.375,209.722 C 146.448,210.661 147.33,208.966 148.322,209.722 C 148.958,209.907 149.392,209.539 149.903,209.283 C 150.837,209.093 152.524,209.722 153.284,209.093 C 154.979,209.348 157.046,208.588 158.74,208.844 C 158.928,208.344 159.31,208.913 159.626,208.844 C 159.429,209.093 159.054,209.148 159.18,209.54 L 159.364,209.723 C 158.492,210.033 158.492,211.476 157.612,211.54 C 157.242,212.35 156.862,213.109 156.669,214.043 C 155.797,214.245 155.038,215.369 154.225,214.934 C 153.91,215.558 153.037,215.558 152.408,215.868 C 151.658,215.433 151.22,216.503 150.591,216.304 C 147.142,217.004 142.179,218 138.604,216.304 C 137.29,216.118 135.844,214.871 134.526,214.735 C 133.521,213.796 132.262,213.047 132.262,211.542 C 137.842,211.791 142.428,209.03 146.512,205.898 C 147.076,205.015 148.082,204.006 149.015,203.444 C 150.905,201.252 152.086,199.996 153.537,197.553 C 152.907,197.243 153.47,195.971 152.408,196.169 C 152.222,197.108 151.22,197.048 150.591,197.298 C 150.083,197.298 149.395,197.484 149.015,197.109 C 148.395,197.802 147.957,196.733 147.197,197.109 C 145.821,197.359 144.625,197.428 143.375,197.553 C 142.312,197.109 141.362,197.484 140.416,197.298 C 139.039,197.109 136.784,196.862 135.472,196.668 L 134.337,196.169 C 135.472,193.345 139.169,193.53 141.118,191.648 C 143.12,191.648 145.254,190.896 147.197,191.207 C 149.082,190.521 150.837,191.403 152.406,192.144" id="path3348"/>
<path d="M 188.113,194.599 C 191.935,196.101 193.569,200.119 193.761,203.886 C 193.996,204.321 193.438,205.33 193.949,205.896 C 193.126,208.843 193.32,212.985 189.875,214.042 C 189.363,215.119 187.924,214.809 186.972,215.178 C 186.668,214.113 185.845,212.789 184.727,212.48 C 184.47,212.985 184.227,213.544 184.033,214.043 C 183.592,213.988 183.093,214.245 182.908,213.794 C 182.278,214.245 181.524,214.174 180.64,213.794 C 178.702,213.426 179.898,211.285 178.577,210.406 L 178.822,210.226 L 178.577,209.969 L 178.822,209.722 L 178.577,209.539 C 178.702,208.22 178.386,206.269 178.386,205.013 C 178.193,204.135 178.636,203.007 178.823,202.068 C 178.323,201.805 178.891,201.499 178.823,201.188 C 179.071,201.25 179.148,201.059 179.263,200.932 C 179.2,199.116 180.141,197.242 181.08,195.538 C 183.093,198.615 183.469,203.131 182.908,207.279 L 183.344,207.964 L 183.592,207.707 C 183.909,208.587 184.787,209.092 185.846,208.843 C 186.601,207.203 189.296,206.327 187.86,204.321 C 189.178,203.387 188.115,201.943 188.115,200.678 C 186.856,199.065 185.343,197.482 183.344,196.861 C 183.093,196.731 183.025,196.287 182.653,196.418 C 183.025,195.603 184.228,194.912 184.471,194.165 C 185.534,193.963 186.923,194.474 188.113,194.599" id="path3350"/>
<path d="M 174.304,196.666 C 175.563,200.303 176.822,204.765 175.69,208.587 C 175.868,209.347 175.308,210.279 175.004,211.096 C 174.174,212.542 172.36,212.659 170.916,213.109 C 170.544,212.859 170.785,212.23 170.233,211.975 C 169.472,211.975 168.899,212.099 168.407,212.66 L 169.104,213.359 C 168.22,214.113 167.275,214.429 166.645,215.618 L 166.833,215.867 C 166.645,216.254 166.09,215.991 165.712,216.047 L 165.525,215.867 L 165.275,216.047 C 163.581,214.81 161.568,212.73 161.437,210.662 C 159.874,209.147 160.623,207.154 160.06,205.014 C 159.993,202.004 159.993,198.99 160.998,196.418 C 161.189,196.486 161.319,196.287 161.437,196.168 L 161.633,196.418 C 161.756,196.287 161.948,196.168 161.881,195.97 C 163.26,196.044 162.69,197.552 163.449,198.238 L 163.26,198.425 C 163.828,199.87 163.828,201.625 164.581,202.947 C 164.634,203.318 164.077,203.632 164.581,203.887 C 165.884,205.635 165.4,209.783 168.656,209.093 C 169.036,208.913 168.837,208.469 168.898,208.159 L 169.103,208.402 C 170.542,206.712 169.969,204.445 169.788,202.316 C 169.292,201.25 169.036,200.054 168.22,199.116 C 167.782,198.936 167.658,198.237 167.101,198.424 C 166.645,197.857 165.525,197.857 164.83,197.552 C 164.949,196.168 167.522,196.732 167.782,195.034 C 169.221,195.727 170.161,193.721 171.351,195.034 C 172.735,194.474 173.425,195.918 174.304,196.666" id="path3352"/>
<path d="M 121.652,196.417 C 122.595,197.606 123.48,198.359 122.595,199.805 C 121.466,200.303 121.841,198.859 120.969,198.936 C 118.265,198.989 116.019,197.482 113.57,197.8 C 113.203,197.676 113.07,198.043 112.88,198.237 C 112.75,198.549 113.13,198.679 113.321,198.936 L 113.57,198.936 C 113.005,200.745 111.56,202.566 111.935,204.576 C 111.864,205.76 112.429,206.513 113.57,206.833 C 115.073,207.648 117.333,207.204 118.526,206.328 C 118.335,205.014 118.016,203.698 117.389,202.502 C 117.587,202.502 117.944,202.435 118.085,202.758 C 118.578,202.502 118.016,202.193 118.085,201.806 C 120.207,201.756 121.037,204.391 122.357,205.449 C 125.733,211.418 124.861,218.129 120.968,223.528 C 119.718,223.839 119.343,225.216 118.084,225.523 C 116.7,226.096 115.262,226.287 114.003,227.166 C 113.568,227.036 112.498,227.036 111.934,227.354 C 108.488,227.479 105.973,227.908 102.706,226.916 C 102.521,226.474 102.146,226.096 101.773,225.785 L 100.888,225.785 C 101.392,225.285 101.773,224.781 102.706,224.656 C 102.146,224.151 101.393,224.151 100.888,223.527 C 104.649,222.773 107.733,223.273 111.309,221.517 C 115.137,219.45 118.655,215.052 118.524,210.662 C 117.519,210.406 116.7,211.097 116.017,210.852 C 115.761,211.416 115.201,211.352 114.691,211.352 C 113.627,211.285 112.808,211.732 111.744,211.54 C 110.176,211.732 107.921,211.476 106.973,209.97 C 106.781,208.284 107.359,207.204 106.781,205.705 L 107.221,205.2 C 106.781,203.698 108.292,202.373 108.797,200.932 L 108.542,200.678 C 111.06,196.417 116.017,194.599 120.967,195.538 C 121.219,195.787 121.966,195.787 121.652,196.417" id="path3354"/>
<path d="M 78.995,199.115 C 79.18,200.423 79.436,201.68 79.685,202.945 C 79.18,203.441 79.685,204.077 79.871,204.575 C 80.625,208.087 79.685,211.225 79.685,214.489 C 79.374,215.866 78.49,217.494 77.861,219.01 C 77.672,219.449 77.928,220.32 77.171,220.389 L 77.426,220.583 C 76.235,221.143 76.982,222.522 75.805,223.086 L 76.042,223.273 C 74.853,223.716 74.722,225.345 73.534,225.522 L 73.345,225.345 C 73.102,225.522 72.965,225.905 72.655,225.784 L 72.405,225.521 C 72.335,225.655 72.21,225.844 71.967,225.784 C 70.529,225.588 68.829,226.095 67.254,226.223 L 67.017,226.032 L 66.762,226.223 L 66.321,225.784 C 66.631,225.521 67.017,225.521 67.255,225.096 L 67.018,224.905 C 71.336,221.704 72.656,216.502 75.171,212.23 L 74.922,211.975 C 75.414,206.832 77.673,201.755 76.485,196.417 C 76.859,196.485 77.239,196.362 77.173,195.969 C 78.49,196.362 78.366,198.043 78.995,199.115" id="path3356"/>
<path d="M 103.401,197.8 C 104.34,199.618 104.161,201.943 104.526,204.077 L 104.024,204.575 C 104.526,207.203 104.714,209.721 104.024,212.229 C 103.65,212.479 103.461,213.108 102.896,212.914 C 102.957,212.659 102.832,212.542 102.707,212.479 C 102.147,212.479 101.832,211.539 101.333,211.095 C 101.208,211.415 100.889,211.351 100.642,211.351 C 99.194,209.282 100.138,205.958 100.204,203.441 C 99.39,202.372 100.952,201.187 99.763,200.242 C 99.07,201.249 98.255,200.118 97.494,200.931 C 96.375,201.248 95.433,200.422 94.551,200.677 C 94.937,204.764 96.624,208.842 95.676,212.913 C 95.433,213.679 94.487,213.424 94.113,213.107 C 93.234,212.478 91.479,212.158 91.166,210.66 C 90.851,207.77 91.86,204.134 91.166,200.931 C 91.665,199.868 91.86,198.422 92.985,197.799 C 93.423,197.855 93.733,198.299 94.113,198.422 C 96.062,197.045 98.698,197.295 100.641,195.968 C 101.334,196.666 102.584,196.915 103.401,197.8" id="path3358"/>
<path d="M 87.781,204.077 C 87.34,206.327 87.899,209.027 86.455,210.851 C 85.397,211.159 85.451,212.293 84.83,212.914 L 84.386,212.229 L 84.196,212.479 C 82.252,208.283 83.322,202.5 84.636,198.236 L 84.83,196.86 C 87.215,198.3 87.275,201.498 87.781,204.077" id="path3360"/>
<path d="M 65.952,213.603 L 65.88,213.603 L 65.88,213.615 C 65.916,213.603 65.922,213.603 65.952,213.603 M 65.952,213.603 C 66.028,213.603 66.041,213.597 65.952,213.603 M 64.316,214.244 L 64.502,214.042 C 65.244,214.489 65.934,215.178 66.761,215.368 L 65.192,213.614 L 65.442,213.358 C 65.442,213.555 65.697,213.596 65.88,213.602 C 65.739,213.476 65.567,213.345 65.624,213.108 C 64.62,212.789 64.055,211.606 62.933,211.351 C 61.613,209.721 59.351,209.091 58.226,207.023 C 59.731,206.138 61.051,206.899 62.738,206.327 C 63.562,206.779 64.995,206.512 65.624,206.583 L 65.88,206.327 C 66.134,206.209 66.506,205.759 66.32,205.199 C 65.119,202.372 62.427,199.618 59.545,198.423 C 58.596,198.175 57.407,197.676 56.592,197.551 C 55.154,196.486 53.134,196.791 51.446,196.417 C 50.576,197.046 49.442,197.046 48.497,197.296 C 47.992,197.551 48.612,198.485 47.81,198.423 C 47.867,200.373 48.558,202.068 48.931,203.886 C 48.612,204.445 48.058,204.321 47.56,204.321 C 47.368,204.636 46.934,204.826 47.119,205.2 C 48.427,206.388 49.753,205.331 50.947,206.833 C 52.195,209.147 54.952,211.417 56.156,213.359 C 56.847,213.425 57.661,214.173 58.224,213.794 C 58.789,214.549 58.789,215.489 59.979,215.369 C 60.042,216.502 61.298,215.618 61.611,216.502 C 61.866,216.502 62.301,216.692 62.481,216.303 C 63.622,217.306 65.31,216.877 66.76,217.003 C 66.63,215.866 64.751,215.557 64.316,214.244 M 53.01,201.623 C 51.76,200.678 50.948,199.115 50.322,197.8 C 50.882,197.919 51.006,197.296 51.447,197.987 C 53.639,198.11 55.279,199.419 57.097,200.499 C 58.472,201.06 59.475,202.502 59.98,203.887 C 57.781,203.511 53.639,205.074 53.01,201.623" id="path3362"/>
<path d="M 70.647,197.8 C 71.596,202.068 74.035,206.9 72.405,211.096 C 71.651,211.416 70.836,211.732 70.143,212.23 C 67.634,210.226 68.829,206.9 68.829,204.321 L 68.586,204.078 L 69.958,197.987 C 70.144,197.731 70.529,197.676 70.836,197.551 L 70.647,197.8 z" id="path3364"/>
<path d="M 48.248,209.969 C 47.613,208.283 46.484,207.404 45.11,206.583 C 43.726,205.136 42.163,204.575 40.339,203.63 C 39.721,203.566 39.721,202.812 39.211,203.201 C 36.644,201.942 33.941,201.058 31.116,200.498 C 30.366,200.242 29.553,200.678 28.859,199.805 C 27.478,199.868 25.534,199.065 24.082,199.375 C 23.206,199.418 23.024,198.423 22.525,197.986 C 22.899,197.356 22.65,196.485 22.714,195.726 C 21.649,196.225 22.145,194.847 21.388,194.847 L 21.138,195.033 C 20.764,194.343 20.569,195.033 20.016,194.847 C 19.201,196.166 18.626,197.855 18.875,199.374 C 18.129,201.561 19.012,203.629 17.75,205.703 C 18.572,206.326 17.75,207.77 18.696,208.157 C 18.572,208.282 18.44,208.467 18.197,208.4 C 18.626,208.586 18.37,209.145 18.44,209.538 C 16.813,210.404 15.363,208.965 14.369,208.157 L 13.924,208.842 C 14.429,209.538 14.864,210.341 15.499,210.66 C 15.932,210.715 16.49,211.415 16.871,211.095 C 17.5,211.158 17.941,211.787 18.439,212.229 C 18.369,212.542 18.625,212.984 18.196,213.108 C 18.695,213.987 18.129,215.243 18.695,216.046 C 19.2,216.501 19.634,217.187 20.264,217.436 C 20.198,217.187 20.388,217.056 20.45,217.002 C 20.824,216.691 21.517,216.551 21.827,217.002 C 23.204,216.378 23.646,218.19 25.22,217.881 C 24.834,217.056 25.908,217.187 25.908,216.501 L 25.908,213.793 C 25.975,213.544 25.725,213.108 26.099,212.914 C 26.403,212.984 26.847,212.728 27.045,213.108 C 29.922,213.169 33.069,213.855 36.076,214.244 C 36.195,214.173 36.256,213.987 36.517,214.042 C 38.205,214.304 39.518,214.361 41.033,214.489 C 42.098,214.244 43.606,214.244 44.859,214.244 L 45.109,214.042 C 46.061,214.809 46.109,212.659 47.119,213.614 C 47.119,213.358 47.049,213.044 47.368,212.914 L 47.81,213.358 C 49.312,212.914 47.743,210.972 48.248,209.969 M 37.207,210.852 C 36.078,210.852 34.189,211.035 32.875,210.662 C 32.625,210.717 32.186,210.471 31.997,210.852 L 28.36,210.852 C 27.478,210.28 25.66,211.285 25.221,209.969 C 25.221,208.78 25.286,207.28 24.781,206.139 L 24.781,202.757 C 30.616,204.077 36.644,205.136 41.464,208.843 C 41.534,209.147 41.278,209.59 41.72,209.722 C 40.649,210.661 38.711,210.59 37.207,210.852" id="path3366"/>



</svg>